<mxfile host="app.diagrams.net" modified="2023-07-17T13:49:15.964Z" agent="Mozilla/5.0 (Macintosh; Intel Mac OS X 10_15_7) AppleWebKit/537.36 (KHTML, like Gecko) Chrome/114.0.0.0 Safari/537.36" etag="K8b4WV1LDFinQpAyrETK" version="21.6.2" type="github">
  <diagram name="第 1 页" id="Ns3fYT7aeViZSa7-GLBh">
    <mxGraphModel dx="1735" dy="827" grid="1" gridSize="10" guides="1" tooltips="1" connect="1" arrows="1" fold="1" page="1" pageScale="1" pageWidth="827" pageHeight="1169" math="0" shadow="0">
      <root>
        <mxCell id="0" />
        <mxCell id="1" parent="0" />
        <mxCell id="n7JDqlJrEcyNx2j1ODeC-1" value="kafka" style="shape=umlLifeline;perimeter=lifelinePerimeter;whiteSpace=wrap;html=1;container=1;dropTarget=0;collapsible=0;recursiveResize=0;outlineConnect=0;portConstraint=eastwest;newEdgeStyle={&quot;edgeStyle&quot;:&quot;elbowEdgeStyle&quot;,&quot;elbow&quot;:&quot;vertical&quot;,&quot;curved&quot;:0,&quot;rounded&quot;:0};" vertex="1" parent="1">
          <mxGeometry x="260" y="50" width="110" height="510" as="geometry" />
        </mxCell>
        <mxCell id="n7JDqlJrEcyNx2j1ODeC-4" value="" style="html=1;points=[];perimeter=orthogonalPerimeter;outlineConnect=0;targetShapes=umlLifeline;portConstraint=eastwest;newEdgeStyle={&quot;edgeStyle&quot;:&quot;elbowEdgeStyle&quot;,&quot;elbow&quot;:&quot;vertical&quot;,&quot;curved&quot;:0,&quot;rounded&quot;:0};" vertex="1" parent="n7JDqlJrEcyNx2j1ODeC-1">
          <mxGeometry x="50" y="95" width="10" height="90" as="geometry" />
        </mxCell>
        <mxCell id="n7JDqlJrEcyNx2j1ODeC-2" value="接收器" style="shape=umlLifeline;perimeter=lifelinePerimeter;whiteSpace=wrap;html=1;container=1;dropTarget=0;collapsible=0;recursiveResize=0;outlineConnect=0;portConstraint=eastwest;newEdgeStyle={&quot;edgeStyle&quot;:&quot;elbowEdgeStyle&quot;,&quot;elbow&quot;:&quot;vertical&quot;,&quot;curved&quot;:0,&quot;rounded&quot;:0};" vertex="1" parent="1">
          <mxGeometry x="100" y="50" width="110" height="510" as="geometry" />
        </mxCell>
        <mxCell id="n7JDqlJrEcyNx2j1ODeC-5" value="" style="html=1;points=[];perimeter=orthogonalPerimeter;outlineConnect=0;targetShapes=umlLifeline;portConstraint=eastwest;newEdgeStyle={&quot;edgeStyle&quot;:&quot;elbowEdgeStyle&quot;,&quot;elbow&quot;:&quot;vertical&quot;,&quot;curved&quot;:0,&quot;rounded&quot;:0};" vertex="1" parent="n7JDqlJrEcyNx2j1ODeC-2">
          <mxGeometry x="50" y="60" width="10" height="210" as="geometry" />
        </mxCell>
        <mxCell id="n7JDqlJrEcyNx2j1ODeC-10" value="" style="endArrow=block;endFill=1;endSize=6;html=1;rounded=0;" edge="1" parent="1">
          <mxGeometry width="160" relative="1" as="geometry">
            <mxPoint x="160" y="160" as="sourcePoint" />
            <mxPoint x="310" y="160" as="targetPoint" />
          </mxGeometry>
        </mxCell>
        <mxCell id="n7JDqlJrEcyNx2j1ODeC-11" value="1、拉取kafka消息" style="text;html=1;align=center;verticalAlign=middle;resizable=0;points=[];autosize=1;strokeColor=none;fillColor=none;" vertex="1" parent="1">
          <mxGeometry x="180" y="130" width="120" height="30" as="geometry" />
        </mxCell>
        <mxCell id="n7JDqlJrEcyNx2j1ODeC-12" value="" style="endArrow=none;endFill=0;endSize=12;html=1;rounded=0;dashed=1;startArrow=open;startFill=0;" edge="1" parent="1">
          <mxGeometry width="160" relative="1" as="geometry">
            <mxPoint x="160" y="200" as="sourcePoint" />
            <mxPoint x="310" y="200" as="targetPoint" />
          </mxGeometry>
        </mxCell>
        <mxCell id="n7JDqlJrEcyNx2j1ODeC-13" value="2、return" style="text;html=1;align=center;verticalAlign=middle;resizable=0;points=[];autosize=1;strokeColor=none;fillColor=none;" vertex="1" parent="1">
          <mxGeometry x="180" y="170" width="70" height="30" as="geometry" />
        </mxCell>
        <mxCell id="n7JDqlJrEcyNx2j1ODeC-17" value="" style="endArrow=none;endFill=0;endSize=12;html=1;rounded=0;edgeStyle=orthogonalEdgeStyle;" edge="1" parent="1">
          <mxGeometry width="160" relative="1" as="geometry">
            <mxPoint x="160" y="220" as="sourcePoint" />
            <mxPoint x="200" y="250" as="targetPoint" />
          </mxGeometry>
        </mxCell>
        <mxCell id="n7JDqlJrEcyNx2j1ODeC-18" value="" style="endArrow=none;endFill=0;endSize=12;html=1;rounded=0;startArrow=block;startFill=1;" edge="1" parent="1">
          <mxGeometry width="160" relative="1" as="geometry">
            <mxPoint x="160" y="250" as="sourcePoint" />
            <mxPoint x="200" y="250" as="targetPoint" />
          </mxGeometry>
        </mxCell>
        <mxCell id="n7JDqlJrEcyNx2j1ODeC-19" value="5、解析日志消息" style="text;html=1;align=center;verticalAlign=middle;resizable=0;points=[];autosize=1;strokeColor=none;fillColor=none;" vertex="1" parent="1">
          <mxGeometry x="200" y="218" width="110" height="30" as="geometry" />
        </mxCell>
        <mxCell id="n7JDqlJrEcyNx2j1ODeC-23" value="聚合器" style="shape=umlLifeline;perimeter=lifelinePerimeter;whiteSpace=wrap;html=1;container=1;dropTarget=0;collapsible=0;recursiveResize=0;outlineConnect=0;portConstraint=eastwest;newEdgeStyle={&quot;edgeStyle&quot;:&quot;elbowEdgeStyle&quot;,&quot;elbow&quot;:&quot;vertical&quot;,&quot;curved&quot;:0,&quot;rounded&quot;:0};" vertex="1" parent="1">
          <mxGeometry x="420" y="50" width="110" height="510" as="geometry" />
        </mxCell>
        <mxCell id="n7JDqlJrEcyNx2j1ODeC-27" value="" style="html=1;points=[];perimeter=orthogonalPerimeter;outlineConnect=0;targetShapes=umlLifeline;portConstraint=eastwest;newEdgeStyle={&quot;edgeStyle&quot;:&quot;elbowEdgeStyle&quot;,&quot;elbow&quot;:&quot;vertical&quot;,&quot;curved&quot;:0,&quot;rounded&quot;:0};" vertex="1" parent="n7JDqlJrEcyNx2j1ODeC-23">
          <mxGeometry x="50" y="110" width="10" height="380" as="geometry" />
        </mxCell>
        <mxCell id="n7JDqlJrEcyNx2j1ODeC-28" value="4、开启告警聚合定时器" style="html=1;align=left;spacingLeft=2;endArrow=block;rounded=0;edgeStyle=orthogonalEdgeStyle;curved=0;rounded=0;" edge="1" target="n7JDqlJrEcyNx2j1ODeC-27" parent="n7JDqlJrEcyNx2j1ODeC-23">
          <mxGeometry relative="1" as="geometry">
            <mxPoint x="60" y="185" as="sourcePoint" />
            <Array as="points">
              <mxPoint x="90" y="185" />
              <mxPoint x="90" y="215" />
            </Array>
            <mxPoint as="offset" />
          </mxGeometry>
        </mxCell>
        <mxCell id="n7JDqlJrEcyNx2j1ODeC-31" value="3、开启存活检测定时器" style="html=1;align=left;spacingLeft=2;endArrow=block;rounded=0;edgeStyle=orthogonalEdgeStyle;curved=0;rounded=0;" edge="1" parent="n7JDqlJrEcyNx2j1ODeC-23">
          <mxGeometry relative="1" as="geometry">
            <mxPoint x="60" y="140" as="sourcePoint" />
            <Array as="points">
              <mxPoint x="90" y="140" />
              <mxPoint x="90" y="170" />
            </Array>
            <mxPoint x="60" y="170" as="targetPoint" />
            <mxPoint as="offset" />
          </mxGeometry>
        </mxCell>
        <mxCell id="n7JDqlJrEcyNx2j1ODeC-29" value="" style="endArrow=block;endFill=1;endSize=6;html=1;rounded=0;" edge="1" parent="1">
          <mxGeometry width="160" relative="1" as="geometry">
            <mxPoint x="160" y="280" as="sourcePoint" />
            <mxPoint x="470" y="280" as="targetPoint" />
          </mxGeometry>
        </mxCell>
        <mxCell id="n7JDqlJrEcyNx2j1ODeC-30" value="6、发送告警消息" style="text;html=1;align=center;verticalAlign=middle;resizable=0;points=[];autosize=1;strokeColor=none;fillColor=none;" vertex="1" parent="1">
          <mxGeometry x="185" y="258" width="110" height="30" as="geometry" />
        </mxCell>
        <mxCell id="n7JDqlJrEcyNx2j1ODeC-32" value="飞书" style="shape=umlLifeline;perimeter=lifelinePerimeter;whiteSpace=wrap;html=1;container=1;dropTarget=0;collapsible=0;recursiveResize=0;outlineConnect=0;portConstraint=eastwest;newEdgeStyle={&quot;edgeStyle&quot;:&quot;elbowEdgeStyle&quot;,&quot;elbow&quot;:&quot;vertical&quot;,&quot;curved&quot;:0,&quot;rounded&quot;:0};" vertex="1" parent="1">
          <mxGeometry x="600" y="50" width="110" height="510" as="geometry" />
        </mxCell>
        <mxCell id="n7JDqlJrEcyNx2j1ODeC-33" value="" style="html=1;points=[];perimeter=orthogonalPerimeter;outlineConnect=0;targetShapes=umlLifeline;portConstraint=eastwest;newEdgeStyle={&quot;edgeStyle&quot;:&quot;elbowEdgeStyle&quot;,&quot;elbow&quot;:&quot;vertical&quot;,&quot;curved&quot;:0,&quot;rounded&quot;:0};" vertex="1" parent="n7JDqlJrEcyNx2j1ODeC-32">
          <mxGeometry x="50" y="270" width="10" height="190" as="geometry" />
        </mxCell>
        <mxCell id="n7JDqlJrEcyNx2j1ODeC-36" value="8、告警聚合定时器到期" style="html=1;align=left;spacingLeft=2;endArrow=block;rounded=0;edgeStyle=orthogonalEdgeStyle;curved=0;rounded=0;" edge="1" parent="1">
          <mxGeometry relative="1" as="geometry">
            <mxPoint x="480" y="320" as="sourcePoint" />
            <Array as="points">
              <mxPoint x="510" y="320" />
              <mxPoint x="510" y="350" />
            </Array>
            <mxPoint x="480" y="350.0000000000001" as="targetPoint" />
            <mxPoint as="offset" />
          </mxGeometry>
        </mxCell>
        <mxCell id="n7JDqlJrEcyNx2j1ODeC-34" value="9、发送告警" style="html=1;verticalAlign=bottom;endArrow=block;edgeStyle=elbowEdgeStyle;elbow=vertical;curved=0;rounded=0;" edge="1" parent="1">
          <mxGeometry x="0.0084" relative="1" as="geometry">
            <mxPoint x="480" y="370" as="sourcePoint" />
            <mxPoint x="650" y="370" as="targetPoint" />
            <mxPoint as="offset" />
          </mxGeometry>
        </mxCell>
        <mxCell id="n7JDqlJrEcyNx2j1ODeC-35" value="10、return" style="html=1;verticalAlign=bottom;endArrow=open;dashed=1;endSize=8;edgeStyle=elbowEdgeStyle;elbow=vertical;curved=0;rounded=0;" edge="1" parent="1">
          <mxGeometry x="0.0025" relative="1" as="geometry">
            <mxPoint x="480" y="389.99555555555554" as="targetPoint" />
            <mxPoint x="650" y="389.99555555555554" as="sourcePoint" />
            <mxPoint as="offset" />
          </mxGeometry>
        </mxCell>
        <mxCell id="n7JDqlJrEcyNx2j1ODeC-37" value="11、存活检测定时器到期" style="html=1;align=left;spacingLeft=2;endArrow=block;rounded=0;edgeStyle=orthogonalEdgeStyle;curved=0;rounded=0;" edge="1" parent="1">
          <mxGeometry x="0.0159" relative="1" as="geometry">
            <mxPoint x="480" y="410" as="sourcePoint" />
            <Array as="points">
              <mxPoint x="510" y="410" />
              <mxPoint x="510" y="440" />
            </Array>
            <mxPoint x="480" y="440" as="targetPoint" />
            <mxPoint as="offset" />
          </mxGeometry>
        </mxCell>
        <mxCell id="n7JDqlJrEcyNx2j1ODeC-38" value="" style="endArrow=block;endFill=1;endSize=6;html=1;rounded=0;" edge="1" parent="1">
          <mxGeometry width="160" relative="1" as="geometry">
            <mxPoint x="480" y="480" as="sourcePoint" />
            <mxPoint x="650" y="480" as="targetPoint" />
          </mxGeometry>
        </mxCell>
        <mxCell id="n7JDqlJrEcyNx2j1ODeC-39" value="12、发送存活消息" style="text;html=1;align=center;verticalAlign=middle;resizable=0;points=[];autosize=1;strokeColor=none;fillColor=none;" vertex="1" parent="1">
          <mxGeometry x="510" y="450" width="120" height="30" as="geometry" />
        </mxCell>
        <mxCell id="n7JDqlJrEcyNx2j1ODeC-40" value="" style="endArrow=none;endFill=0;endSize=12;html=1;rounded=0;dashed=1;startArrow=open;startFill=0;" edge="1" parent="1" source="n7JDqlJrEcyNx2j1ODeC-5">
          <mxGeometry width="160" relative="1" as="geometry">
            <mxPoint x="310" y="300" as="sourcePoint" />
            <mxPoint x="470" y="300" as="targetPoint" />
          </mxGeometry>
        </mxCell>
        <mxCell id="n7JDqlJrEcyNx2j1ODeC-41" value="7、return" style="edgeLabel;html=1;align=center;verticalAlign=middle;resizable=0;points=[];" vertex="1" connectable="0" parent="n7JDqlJrEcyNx2j1ODeC-40">
          <mxGeometry x="-0.6092" y="4" relative="1" as="geometry">
            <mxPoint x="1" as="offset" />
          </mxGeometry>
        </mxCell>
        <mxCell id="n7JDqlJrEcyNx2j1ODeC-42" value="" style="endArrow=none;endFill=0;endSize=12;html=1;rounded=0;dashed=1;startArrow=open;startFill=0;" edge="1" parent="1" source="n7JDqlJrEcyNx2j1ODeC-27">
          <mxGeometry width="160" relative="1" as="geometry">
            <mxPoint x="490" y="500" as="sourcePoint" />
            <mxPoint x="650" y="500" as="targetPoint" />
          </mxGeometry>
        </mxCell>
        <mxCell id="n7JDqlJrEcyNx2j1ODeC-43" value="13、return" style="edgeLabel;html=1;align=center;verticalAlign=middle;resizable=0;points=[];" vertex="1" connectable="0" parent="n7JDqlJrEcyNx2j1ODeC-42">
          <mxGeometry x="-0.3042" y="4" relative="1" as="geometry">
            <mxPoint x="11" y="-6" as="offset" />
          </mxGeometry>
        </mxCell>
      </root>
    </mxGraphModel>
  </diagram>
</mxfile>
